<svg xmlns="http://www.w3.org/2000/svg" xmlns:xlink="http://www.w3.org/1999/xlink" class="svg-icon plant" x="0px" y="0px" viewBox="0 0 512.001 512.001" style="enable-background:new 0 0 512.001 512.001;" xml:space="preserve">
<g>
	<g>
		<path d="M288.076,117.333h-64.139c-5.866-0.035-10.603-4.801-10.603-10.667V96c0-5.891,4.776-10.667,10.667-10.667h21.333h21.333    H288c5.891,0,10.667,4.776,10.667,10.667H320c0-17.673-14.327-32-32-32h-21.333V42.667h-21.333V64h-21.333    c-17.673,0-32,14.327-32,32v10.667c0,17.648,14.288,31.965,31.936,32h64.139c5.862,0.041,10.592,4.805,10.592,10.667V160    c0.001,5.891-4.775,10.667-10.666,10.667h-64c-5.891,0-10.667-4.776-10.667-10.667h-21.333c0,17.673,14.327,32,32,32h21.333    v21.333h21.333V192h21.333c17.673,0,32-14.327,32-32v-10.667C320.001,131.689,305.72,117.374,288.076,117.333z"></path>
	</g>
</g>
<g>
	<g>
		<path d="M256.002,0c-70.692,0-128,57.308-128,128s57.308,128,128,128c70.661-0.076,127.924-57.339,128-128    C384.002,57.308,326.694,0,256.002,0z M256.002,234.667c-58.911,0-106.666-47.757-106.666-106.667    c0-58.91,47.756-106.667,106.666-106.667C314.886,21.398,362.604,69.116,362.669,128    C362.669,186.91,314.913,234.667,256.002,234.667z"></path>
	</g>
</g>
<g>
	<g>
		<path d="M426.669,362.667h-74.507c35.219-15.995,70.033-43.972,84.726-92.939c0.298-0.993,0.449-2.025,0.449-3.062    c0-5.891-4.776-10.666-10.667-10.666c-19.954,0.101-39.694,4.117-58.101,11.819l9.536,19.093    c10.405-4.626,21.501-7.509,32.843-8.533c-26.197,58.368-91.541,76.331-128.469,81.835c15.488-15.307,38.752-34.859,61.44-40.533    l-5.163-20.693c-27.764,6.943-54.772,29.632-72.085,46.859v-56.036l30.677,4.804c1.599,0.2,3.21,0.3,4.821,0.299    c17.383-0.004,32.657-11.53,37.429-28.245h12.405v-21.333h-21.579c-5.891,0-10.667,4.776-10.667,10.667    c0.025,5.047-2.148,9.856-5.952,13.173c-3.663,3.313-8.576,4.887-13.483,4.32l-42.667-6.699c-1.096-0.171-2.211-0.171-3.307,0    l-42.336,6.656c-0.706,0.087-1.416,0.131-2.127,0.132c-9.726,0.015-17.623-7.857-17.638-17.583    c0-5.891-4.776-10.667-10.667-10.667h-21.579v21.333h12.405c5.317,18.566,23.439,30.428,42.581,27.872l30.347-4.736v56.01    c-17.313-17.227-44.322-39.916-72.085-46.859l-5.163,20.693c22.624,5.643,45.92,25.205,61.408,40.533    c-36.928-5.515-102.251-23.477-128.437-81.835c11.341,1.024,22.437,3.907,32.843,8.533l9.536-19.093    c-18.41-7.691-38.15-11.695-58.101-11.787c-1.037,0-2.069,0.151-3.062,0.449c-5.643,1.691-8.847,7.636-7.157,13.279    c14.693,48.966,49.507,76.944,84.726,92.939H85.336c-5.891,0-10.667,4.776-10.667,10.667V416c0,5.891,4.776,10.667,10.667,10.667    h21.333v74.667c0,5.891,4.776,10.667,10.667,10.667h277.333c5.891,0,10.667-4.776,10.667-10.667v-74.667h21.333    c5.891,0,10.667-4.776,10.667-10.667v-42.667C437.336,367.442,432.56,362.667,426.669,362.667z M416.002,405.333h-32V416v10.667    v64h-256v-64h224v-21.333h-256V384h320V405.333z"></path>
	</g>
</g>
<g>
	<g>
		<rect x="149.341" y="448" width="21.333" height="21.333"></rect>
	</g>
</g>
<g>
	<g>
		<rect x="192.001" y="448" width="21.333" height="21.333"></rect>
	</g>
</g>
<g>
</g>
<g>
</g>
<g>
</g>
<g>
</g>
<g>
</g>
<g>
</g>
<g>
</g>
<g>
</g>
<g>
</g>
<g>
</g>
<g>
</g>
<g>
</g>
<g>
</g>
<g>
</g>
<g>
</g>
</svg>